<svg width="57" height="16" viewBox="0 0 57 16" fill="none" xmlns="http://www.w3.org/2000/svg">
<path d="M8.29883 0.78125H10.418L13.0645 11.4648L15.2227 0.78125H17.7324L14.4707 15H12.0098L9.36328 4.69727L6.66797 15H4.2168L0.945312 0.78125H3.45508L5.63281 11.4355L8.29883 0.78125ZM18.5137 9.61914C18.5137 8.59049 18.709 7.67253 19.0996 6.86523C19.4902 6.05143 20.0501 5.41016 20.7793 4.94141C21.515 4.47266 22.3971 4.23828 23.4258 4.23828C24.4674 4.23828 25.3561 4.47266 26.0918 4.94141C26.8275 5.41016 27.3874 6.05143 27.7715 6.86523C28.1621 7.67253 28.3574 8.59049 28.3574 9.61914V9.82422C28.3574 10.8464 28.1621 11.7643 27.7715 12.5781C27.3874 13.3854 26.8275 14.0234 26.0918 14.4922C25.3626 14.9609 24.4805 15.1953 23.4453 15.1953C22.4102 15.1953 21.5247 14.9609 20.7891 14.4922C20.0534 14.0234 19.4902 13.3854 19.0996 12.5781C18.709 11.7643 18.5137 10.8464 18.5137 9.82422V9.61914ZM20.9355 9.82422C20.9355 10.4492 21.0202 11.0221 21.1895 11.543C21.3652 12.0573 21.6387 12.4707 22.0098 12.7832C22.3809 13.0957 22.8594 13.252 23.4453 13.252C24.0247 13.252 24.4967 13.0957 24.8613 12.7832C25.2324 12.4707 25.5026 12.0573 25.6719 11.543C25.8477 11.0221 25.9355 10.4492 25.9355 9.82422V9.61914C25.9355 9.00716 25.8477 8.44076 25.6719 7.91992C25.5026 7.39909 25.2324 6.97917 24.8613 6.66016C24.4902 6.34115 24.0117 6.18164 23.4258 6.18164C22.8464 6.18164 22.3711 6.34115 22 6.66016C21.6354 6.97917 21.3652 7.39909 21.1895 7.91992C21.0202 8.44076 20.9355 9.00716 20.9355 9.61914V9.82422ZM32.752 15H30.3301V4.43359H32.6348L32.7031 5.6543C32.9701 5.2181 33.3021 4.87305 33.6992 4.61914C34.1029 4.36523 34.5749 4.23828 35.1152 4.23828C35.252 4.23828 35.4049 4.2513 35.5742 4.27734C35.7435 4.30339 35.8704 4.33268 35.9551 4.36523L35.9355 6.66016C35.7858 6.64062 35.6263 6.62435 35.457 6.61133C35.2943 6.5918 35.1315 6.58203 34.9688 6.58203C34.3958 6.58203 33.9271 6.69271 33.5625 6.91406C33.1979 7.13542 32.9277 7.44792 32.752 7.85156V15ZM39.8516 15H37.4199V0H39.8516V8.61328L40.5645 7.72461L43.4844 4.43359H46.4043L42.4785 8.83789L46.8047 15H43.9922L40.916 10.4883L39.8516 11.5723V15ZM53.7871 12.1191C53.7871 11.8978 53.7285 11.696 53.6113 11.5137C53.4941 11.3249 53.2728 11.1556 52.9473 11.0059C52.6217 10.8561 52.1465 10.7129 51.5215 10.5762C50.4017 10.3418 49.4902 9.98372 48.7871 9.50195C48.0905 9.02018 47.7422 8.33333 47.7422 7.44141C47.7422 6.86849 47.9049 6.34115 48.2305 5.85938C48.5625 5.37109 49.0345 4.98047 49.6465 4.6875C50.2585 4.38802 50.9876 4.23828 51.834 4.23828C52.7194 4.23828 53.4811 4.38802 54.1191 4.6875C54.7572 4.98047 55.2454 5.38086 55.584 5.88867C55.929 6.38997 56.1016 6.95964 56.1016 7.59766H53.6797C53.6797 7.18099 53.5234 6.81641 53.2109 6.50391C52.9049 6.1849 52.4427 6.02539 51.8242 6.02539C51.2448 6.02539 50.8118 6.15885 50.5254 6.42578C50.2389 6.6862 50.0957 6.98893 50.0957 7.33398C50.0957 7.67904 50.2422 7.95898 50.5352 8.17383C50.8346 8.38216 51.4043 8.57422 52.2441 8.75C53.4551 9.00391 54.4089 9.36849 55.1055 9.84375C55.8086 10.3125 56.1602 11.0319 56.1602 12.002C56.1602 12.6204 55.9811 13.1706 55.623 13.6523C55.2715 14.1341 54.7734 14.5117 54.1289 14.7852C53.4844 15.0586 52.7292 15.1953 51.8633 15.1953C50.8932 15.1953 50.0762 15.0228 49.4121 14.6777C48.748 14.3327 48.2435 13.89 47.8984 13.3496C47.5599 12.8092 47.3906 12.2526 47.3906 11.6797H49.7246C49.7572 12.3112 49.9948 12.7572 50.4375 13.0176C50.8802 13.278 51.3652 13.4082 51.8926 13.4082C52.5111 13.4082 52.9798 13.2878 53.2988 13.0469C53.6243 12.7995 53.7871 12.4902 53.7871 12.1191Z" fill="#FF6464"/>
</svg>
